<?xml version="1.0" encoding="utf-8"?>
<!-- Generator: Adobe Illustrator 24.0.3, SVG Export Plug-In . SVG Version: 6.00 Build 0)  -->
<svg version="1.1"
	 id="svg2" inkscape:version="0.47 r22583" sodipodi:docname="Neues Dokument 1" xmlns:cc="http://creativecommons.org/ns#" xmlns:dc="http://purl.org/dc/elements/1.1/" xmlns:inkscape="http://www.inkscape.org/namespaces/inkscape" xmlns:rdf="http://www.w3.org/1999/02/22-rdf-syntax-ns#" xmlns:sodipodi="http://sodipodi.sourceforge.net/DTD/sodipodi-0.dtd" xmlns:svg="http://www.w3.org/2000/svg"
	 xmlns="http://www.w3.org/2000/svg" xmlns:xlink="http://www.w3.org/1999/xlink" x="0px" y="0px" viewBox="0 0 1465.1 710.6"
	 style="enable-background:new 0 0 1465.1 710.6;" xml:space="preserve">
<style type="text/css">
	.st0{fill:none;stroke:#000000;stroke-miterlimit:10;}
</style>
<defs>
	
		<inkscape:perspective  id="perspective10" inkscape:persp3d-origin="372.04724 : 350.78739 : 1" inkscape:vp_x="0 : 526.18109 : 1" inkscape:vp_y="0 : 1000 : 0" inkscape:vp_z="744.09448 : 526.18109 : 1" sodipodi:type="inkscape:persp3d">
		</inkscape:perspective>
	
		<inkscape:perspective  id="perspective2824" inkscape:persp3d-origin="0.5 : 0.33333333 : 1" inkscape:vp_x="0 : 0.5 : 1" inkscape:vp_y="0 : 1000 : 0" inkscape:vp_z="1 : 0.5 : 1" sodipodi:type="inkscape:persp3d">
		</inkscape:perspective>
</defs>
<sodipodi:namedview  bordercolor="#666666" borderopacity="1.0" id="base" inkscape:current-layer="layer1" inkscape:cx="625.17606" inkscape:cy="518.80927" inkscape:document-units="px" inkscape:pageopacity="0.0" inkscape:pageshadow="2" inkscape:window-height="749" inkscape:window-maximized="1" inkscape:window-width="1366" inkscape:window-x="-4" inkscape:window-y="-4" inkscape:zoom="0.35" pagecolor="#ffffff" showgrid="false">
	</sodipodi:namedview>
<g id="layer1" transform="translate(275.17606,-309.45844)" inkscape:groupmode="layer" inkscape:label="Ebene 1">
	<path id="path2830" class="st0" d="M92.5,1018.6c-6-2.2-7.7-4.4-6.3-8.2c0.7-1.7,1.9-3.2,2.8-3.2c0.9,0,4.8,2,8.7,4.5
		c3.9,2.5,8.6,5.1,10.5,5.8l3.5,1.3l-4.3,0.1c-2.4,0.1-5.8,0.3-7.7,0.6S94.7,1019.4,92.5,1018.6L92.5,1018.6z M78.9,1007
		c-1.1-0.6-3-0.8-4.2-0.5c-1.5,0.5-2.6-0.2-3.7-2.3c-0.9-1.6-2.4-3.2-3.5-3.6c-2.4-0.8-7.3-8.9-10.1-16.4c-1.4-3.8-3.3-6.4-5.5-7.7
		c-4-2.2-4.2-3.3-1.2-4.2c3.5-1.1,4.2-7.3,1.2-11.4c-1.4-2-2.1-4.3-1.7-5.4c0.5-1.3-0.9-3.6-4.2-7c-4.2-4.3-5-5.9-5.2-10.4
		c-0.1-2.9-0.8-6.1-1.6-7c-0.9-1.1-1.1-5.2-0.6-13.3c0.6-8.8,0.2-14.2-1.3-21.7c-2.3-11.2-3.4-32.1-2.8-51.1
		c0.1-4.1-0.4-9.6-1.2-12.4c-1.9-6.7-10.5-15.2-21.1-20.8c-7.6-4-8.7-5-11.7-11.2c-1.8-3.7-5.2-9.3-7.7-12.4c-2.4-3.1-5-7.6-5.8-10
		c-2.5-7.8-6.9-15.6-10-17.5c-1.6-1.1-3.4-3.8-4.1-6.1c-1-3.7-0.8-4.7,2.5-9.4c3.5-5.1,3.5-5.3,1.2-5.9c-5.8-1.5-3.3-9.2,7-22.3
		c6.9-8.7,8.9-15.3,7-23c-0.7-2.9-1.4-6-1.4-6.8c-0.1-0.8-0.6-1.5-1.2-1.5c-0.6,0-0.5-1.1,0.2-2.4c1.1-2,0.8-2.6-1.8-3.8
		c-3.8-1.7-9.4,0-9.5,2.8c0,3.4-1.5,3.7-6.5,1.1c-2.6-1.4-5.4-2.5-6.1-2.5c-0.7,0-3.5-1.9-6.2-4.2c-2.7-2.3-5.5-4.7-6.3-5.4
		c-0.8-0.6-1.5-2.4-1.5-3.9s-1-3.7-2.3-4.8c-1.3-1.2-2.9-3.9-3.7-6.2c-1-3-1.7-3.7-2.6-2.8c-1.9,1.9-4.8,1.6-11.8-1.5
		c-3.7-1.6-7.5-4.4-9-6.5c-1.5-2-4.2-4.5-6.2-5.5c-3.2-1.7-4-1.6-8.7,0.1l-5.1,2l-15.8-7.6c-9.7-4.7-17.2-9.2-19.5-11.6
		c-3.6-3.8-3.7-4.2-2.5-9c1.1-4.3,0.9-5.7-1.5-10.6c-1.5-3.1-4.8-7.9-7.3-10.6s-4.3-5.4-3.9-6c0.3-0.6-1.4-4.4-3.9-8.5
		c-2.9-4.7-4.9-9.6-5.4-13.3c-0.6-4.7-1.4-6.1-3.8-7.2c-2.5-1.1-3.2-1-4.7,1c-2,2.8-1.5,5.7,3,15.4c1.8,3.9,3.7,9.8,4.2,13
		c0.5,3.2,1.9,7.8,3.1,10.3c3,5.8,1,5.7-3.6-0.2c-2.8-3.5-3.5-5.4-3-7.6c0.6-2.3,0-3.5-2.9-5.6c-4.3-3.2-5.3-5.3-3.7-8.3
		c0.9-1.7,0.5-3.6-1.9-8.3c-2.4-4.7-2.9-7-2.3-10.5c1-5.7-1.6-10.9-6.4-12.9c-2.8-1.1-3.7-2.4-4.3-5.8c-0.4-2.4-1.2-6-1.7-8.1
		c-0.6-2.2-0.5-4.1,0.1-4.5c0.6-0.4,0.2-2-0.9-3.6c-1.6-2.4-1.7-3.5-0.6-5.9c0.7-1.6,1-3.5,0.6-4.2c-0.4-0.7,0.6-2.6,2.2-4.3
		s3.8-5.2,4.8-7.7s4.2-7.1,7-10.3c2.8-3.2,6.4-8.7,8-12.3c2.2-5,3.4-6.5,5.4-6.6c1.4,0,2.5,0.6,2.4,1.5c-0.4,3.4,2.3,2.3,5.3-2.1
		c1.8-2.6,2.7-4.9,2.1-5.1c-0.6-0.2-1.1-1.2-1.1-2.2s-2.4-4.2-5.4-7.1c-5-4.8-5.3-5.5-3.6-7.3c1.3-1.5,1.5-2.6,0.6-4.1
		c-1.6-2.8,0.9-9.1,3.6-9.1c1.1,0,1.4-0.4,0.7-0.9c-1.5-1.1-2.2-3.7-2-7.4c0.3-5.9-1-8.4-5.3-10.2c-2.4-1-6-3.1-8-4.6
		s-4.7-2.8-5.8-2.8c-1.1,0-6.3-1.1-11.4-2.4c-8.3-2.1-9.7-2.2-12.6-0.7c-5.9,3.1-12.2,4.3-14.8,2.9c-1.9-1-4-0.4-11.3,3.4
		c-4.9,2.6-10.8,5.1-13.1,5.6c-2.3,0.5-6.6,2.1-9.7,3.7c-8.6,4.4-21,8.7-24.4,8.7c-2.2,0-0.7-1,5.2-3.3c10-4,20.2-9.1,21.2-10.7
		c1.2-1.9-1.4-2.6-4.4-1.2c-2.2,1-3.6,0.9-6.2-0.4l-3.3-1.7l3.6-1.9c4.1-2.1,5.4-4.5,4.4-8.3c-0.9-3.6,4.1-6.3,14.9-7.9
		c5.8-0.9,10.2-2.3,13.2-4.4c5.2-3.6,4.3-6.3-1.3-3.9c-2.7,1.1-4.6,1.1-8.6,0.1c-4.8-1.3-5-1.5-2.8-3.1c3.6-2.6,11.1-4.2,16-3.4
		c3.1,0.5,5.6,0.2,8.3-1.2l3.8-1.9l-2.5-2.6c-1.4-1.5-2.5-3-2.5-3.3c0-1.1,7.1-3.3,10.7-3.3c1.8,0,6.6-1.3,10.8-2.9
		c4.2-1.6,13.8-3.7,21.4-4.8c12.3-1.7,14.9-1.7,24.2-0.2c5.7,0.9,13.5,2.1,17.4,2.5s10.8,1.8,15.3,3c10.5,2.9,17.4,2.9,29.2-0.1
		c5.2-1.3,10.4-2.1,11.7-1.7c1.2,0.4,3.3,0.1,4.6-0.6c1.8-1,3.2-0.9,5.8,0.5c2.3,1.2,5.2,1.6,9.2,1.1c4.2-0.5,7.8,0,13.1,1.8
		c4,1.4,8.5,2.5,10,2.5c2.6,0,2.6,0,0.3,1.7c-2.2,1.6-2.2,1.7-0.1,2.5c1.2,0.5,5.3,0.5,9.1,0.1c6.9-0.7,7-0.7,8.9,3l1.9,3.8l2.5-3.2
		c1.5-1.8,4.9-3.9,8.1-4.8c4.9-1.5,6.3-1.5,11.2,0c3.4,1.1,7.6,1.4,10.6,1c3.9-0.6,5.7-0.2,8.3,1.6c3.2,2.3,3.3,2.3,6.2,0.1
		c1.6-1.2,4.9-2.8,7.3-3.5c5.8-1.6,7.8-5.1,4.3-7.5c-2.5-1.7-2.4-1.9,4.1-5c4.8-2.4,7-2.9,8-2s0.9,2,0,3.8c-1.6,3.1,0.4,7.7,3,6.8
		c0.9-0.4,2.5-0.3,3.4,0c1.5,0.6,1.5,1.1-0.2,3.6c-4.5,6.9,5.6,5,12.5-2.4c2.8-3,7.1-3.9,11.2-2.4c2.6,1,2.4,1.8-2,6.6
		c-5.2,5.7-7.8,6.8-15.6,6.8c-3.8,0-8.2,0.8-10.3,1.9c-2.9,1.5-4.3,1.6-6.5,0.6c-4.2-1.9-5.7-0.3-2.7,2.9l2.6,2.7l-5.1,1.5
		c-2.8,0.8-7.5,1.5-10.5,1.6c-4.2,0.1-5.3,0.6-5.3,2.3c0,1.4-2.1,2.9-6.5,4.8C13,404.2,0.8,414.7,5.2,417.5c0.8,0.5,2.1,2.4,2.9,4.2
		c0.9,2,2.6,3.5,4.7,3.9c1.8,0.4,6.5,2.2,10.4,4.1s8.7,3.8,10.6,4.3c5.4,1.2,5.4,1.3,2.9,7.6c-2.1,5.4-2.2,6.2-0.5,9.4
		c1,1.9,2.5,3.5,3.3,3.4c3.9-0.1,7.5-3.7,9.8-9.6c2.1-5.6,3.1-6.7,9.3-10c9.1-4.9,12.9-9.7,11.9-15c-0.7-3.5-0.3-4.3,2.7-6.5
		c1.9-1.3,4.4-4.6,5.6-7.2c2.6-5.8,6.8-7.8,13.9-6.6c6.3,1,13.7,5,14.6,7.8c0.4,1.2,0.1,3.2-0.7,4.6c-1.1,2.1-0.9,3,1.3,5.3l2.6,2.8
		l4.3-2.2c2.4-1.2,6.1-3.6,8.4-5.3l4.1-3.1l1,2.6c0.5,1.4,0.7,3.3,0.3,4.2c-0.3,0.9-0.1,2.7,0.6,3.9c0.8,1.4,0.8,3,0.2,4.2
		c-0.7,1.3-0.2,3.4,1.7,6.7c2.7,4.8,2.7,4.8,0.3,6.5c-3.1,2.2-1.1,4.5,2.3,2.7c3.4-1.8,7.4-1.6,9.8,0.6c3.6,3.2,0.6,7.1-8.9,11.6
		c-10.3,4.9-14.9,5.8-28.4,5.9c-10,0.1-11.3,0.4-21,5c-5.7,2.7-10.3,5.4-10.3,6c0,2.4,1.8,2.2,8.7-1c4-1.9,9.3-3.4,11.8-3.4
		c4.2,0,4.4,0.1,3.1,2.6c-0.8,1.4-2.4,3.4-3.7,4.5c-2,1.6-2.1,2.3-0.9,5c1.9,4.1,6.7,6,12.5,5.1l4.6-0.8l-3.5,2.4
		c-1.9,1.3-5.1,2.8-7.1,3.2c-2,0.4-6,2-9,3.5c-3,1.5-6,2.3-6.8,1.8c-1.9-1.2,0.1-2.9,6.2-5.4c5.4-2.3,4.5-4.7-1.3-3.6
		c-2.3,0.4-9.6,3.2-16.3,6.2c-10.5,4.6-12.3,5.8-12.9,8.6c-0.8,3.4-3.3,5-12.3,7.8c-2.9,0.9-6.6,3-8.3,4.7c-1.7,1.7-4.9,4.3-7.1,5.7
		c-2.2,1.4-4.4,3.9-4.8,5.5c-0.6,2.7-0.8,2.7-1.6,0.7c-1.5-3.8-3.7-0.1-3.8,6.5c-0.1,6.7-3.5,11.3-11,14.8
		C3.2,547.4-7.7,555.9-9.9,560c-1.9,3.6-2,5-0.8,14.3c1.1,8.7,1.1,10.9-0.4,13.7c-1.1,2.1-2.4,3.1-3.5,2.7c-2.5-1-5.6-11.4-4.8-16
		c0.6-3.2,0.2-4.4-2.2-6.7c-1.9-1.8-3.7-2.5-5.2-2c-1.3,0.4-4.8-0.4-8-1.7c-4.8-2-6.3-2.2-9.7-1.1c-2.3,0.8-4.6,2.6-5.3,4.2
		c-1.1,2.5-1.9,2.8-4.9,2.1c-2-0.4-5.1-1.5-6.8-2.4c-4.3-2.2-6.7-2.1-11.6,0.7c-2.3,1.3-6.9,3.8-10.3,5.5c-3.9,2-6.6,4.3-7.3,6.2
		c-0.6,1.7-2.8,8.2-4.8,14.4l-3.7,11.4l1.9,7.4c3.5,13.5,8.4,17.6,18.5,15.4c7.7-1.6,12.2-5,13.9-10.1c1.1-3.3,2.2-4.3,5.7-5.3
		c5.2-1.4,7.4-1.5,9.4-0.2c1.7,1,1.1,2.8-6.3,18.8c-5.1,11-4.7,12,4,10.7c7.9-1.1,15.2-0.3,16,1.9c0.3,0.9-0.2,6.7-1.2,12.9
		c-1.8,11.1-1.8,11.4,0.8,15.5c1.4,2.3,4.1,5,5.9,5.9c2.9,1.5,3.8,1.5,7.5,0c5.8-2.4,9-2.2,13.1,1.1c3.2,2.6,3.7,2.7,6.3,1
		c1.5-1,3.6-3.5,4.6-5.5c2.3-4.5,6.1-7.7,9.4-7.8c1.3,0,3.7-1.4,5.2-3c3.1-3.3,8.6-4.4,5.9-1.2c-2.2,2.7-3.5,11.4-2.1,14.1
		c1.2,2.2,1.3,2.2,3.5-0.5c1.6-1.9,1.9-3.2,1-4c-2-2-1.4-3.7,2.4-6.5c3.9-2.9,7-2.6,10.3,1c2.5,2.6,15.7,6.2,19.5,5.3
		c5.8-1.5,21.4,8,27.3,16.6c2.8,4.1,11.7,8.1,15.6,7.2c8.1-2,19.1,6.1,21.7,15.9c0.8,2.9,1.9,5.6,2.6,6.1c1.7,1.1-0.9,5.3-6.5,10.7
		c-3.6,3.4-4.5,4.9-3.5,5.9c1,1,2.7,0.1,6.7-3.6c5.8-5.4,7.8-5.9,10.7-3c1.8,1.8,1.7,2.1-0.7,4.7c-1.4,1.5-3.5,2.8-4.5,2.9
		c-1.1,0-0.6,0.6,1,1.2c2.3,0.9,3.5,0.7,5.9-1.3c6.2-5,7.7-5.3,13.2-2.2c3.6,2,5,3.5,4.9,5.2c-0.5,4.5,0.6,5.5,3.7,3.5
		c2.5-1.6,4.2-1.7,12.5-0.6c8.8,1.2,10,1.7,14.2,5.9c3.1,3.1,6.7,5.2,11.1,6.5c6,1.7,6.6,2.3,7.7,6.3c1.6,5.8-0.3,12.3-5.2,18.4
		c-2.1,2.6-4.7,6.5-5.8,8.6c-1.1,2.1-3.3,5.2-5,6.9c-2.9,2.9-3,3.6-2.3,10.4c1.4,13.3-5.1,38.1-11.4,43.4c-2,1.7-3.8,2.1-7,1.6
		c-2.7-0.4-4.6-0.1-5.1,0.7c-0.5,0.7-3,2.3-5.7,3.5s-6.7,3.7-8.9,5.6c-3.8,3.3-3.9,3.6-2.7,7.5c1.5,4.5,0.5,9.8-2.7,14.3
		c-1,1.5-1.9,4-1.9,5.5s-1.2,4.5-2.7,6.5c-1.5,2-4.4,6.6-6.5,10.2c-5,8.9-8.1,10.4-15.4,7.8c-6.3-2.3-9.7-2.5-9.7-0.8
		c0,0.7,1.3,1.8,2.8,2.5c1.5,0.7,3.9,3.6,5.3,6.4c2.1,4.2,2.3,5.6,1.2,8c-1.7,3.7-8.1,6.8-14.1,6.8c-5.3,0-6.6,1.3-4.8,4.7
		c1.1,2.1,0.4,5.5-1.8,8.1c-0.2,0.2-2-0.5-4.1-1.6c-5-2.6-6.7-0.9-4.2,3.9c1,2,3,3.9,4.3,4.4c2.3,0.7,2.4,0.9,0.5,3
		c-1.1,1.2-1.7,3.1-1.3,4.1c0.4,1.1-0.5,3.6-2.4,5.9c-3,3.9-3,4.2-1.1,7.1c1.1,1.7,2.8,3.3,3.8,3.7c3.6,1.4,4.1,6,1.4,11.3
		c-2.7,5.3-3.1,10.7-1,13.2C88.3,1004.2,81.8,1008.7,78.9,1007L78.9,1007z M-8.1,495.5c3.2-6.6,9-11.5,13.8-11.5
		c3.4,0,3.4,0.6,0.3,4.5l-2.5,3.1l2.5,2c2,1.6,3.1,1.8,5.4,0.7c1.6-0.7,3.2-2.3,3.6-3.6c0.5-1.7,1.4-2.1,3.5-1.6
		c1.9,0.5,3.1,0.1,3.9-1.3c2.4-4.3-3.7-9.8-8.2-7.4c-3.2,1.7-7.4-1.7-6.5-5.3c0.3-1.3-0.4-3.7-1.5-5.2c-2.4-3.2-6.2-3.6-14.3-1.3
		c-2.9,0.8-6.3,1.4-7.4,1.4c-1.2,0-1.8,0.4-1.4,1c0.4,0.6,0.3,1.1-0.3,1.1c-0.5,0-2.3,1-3.9,2.3l-2.9,2.3l3.3,1.3
		c2.6,1,4.1,0.8,7-0.6c3.4-1.7,4-1.7,7.7,0c2.2,1.1,5.2,1.6,6.8,1.2c1.5-0.4,3.1-0.2,3.5,0.5c0.4,0.7-1.3,1.5-3.8,1.9
		c-6.9,1.2-10.5,4-15.5,12.4c-4.2,7-4.4,7.9-2.8,9.7c1.6,1.8,2.1,1.8,4.3,0.3C-12.2,502.5-9.7,498.9-8.1,495.5L-8.1,495.5z
		 M13.3,502.8c4.2-2.1,4.6-2.7,3.1-4.2s-2.4-1.4-7.2,0.7c-5.7,2.5-7.5,5.9-3.1,5.9C7.4,505.3,10.7,504.2,13.3,502.8z M34.3,493.9
		c2.5-1.7,2.6-2.1,0.8-3c-2.6-1.4-10.1,1-10.1,3.3C25,496.5,30.8,496.3,34.3,493.9z M123,1003.9c0-0.5,0.6-1.6,1.4-2.4
		s1-1.4,0.4-1.4s-1.6,0.9-2.4,1.9c-1.1,1.5-1.9,1.7-3.7,0.6c-1.3-0.7-1.6-1.3-0.7-1.3c0.9,0,1.2-0.6,0.8-1.2
		c-0.8-1.2,1.3-1.6,7.1-1.2c5.2,0.4,5.7,1.1,2.5,3.6C125.4,1004.9,123,1005.5,123,1003.9L123,1003.9z M1109.3,974.3
		c-3.4-2.1,3.7-6.9,21.1-14.2c4.9-2,12.3-6.3,16.5-9.5c7.1-5.4,7.7-5.6,9.2-3.6c2.1,3.1,0.9,5.3-4.4,7.7c-2.5,1.1-5.7,3.3-7,4.9
		c-1.3,1.5-3.5,2.8-4.8,2.8s-4.4,1.8-6.8,4C1124.8,973.8,1114.2,977.3,1109.3,974.3L1109.3,974.3z M1026.7,958.9
		c-1.2-0.8-1.3-1.6-0.3-3.4c0.7-1.3,1.3-4.1,1.3-6.1c0-3.3,0.3-3.6,2.7-2.8c1.5,0.5,4.5,1,6.8,1.1c2.3,0.1,4.5,0.2,5,0.3
		c2,0.4-3.3,6.3-8,9.1C1028.6,960.4,1028.8,960.3,1026.7,958.9L1026.7,958.9z M1163.2,948.6c-0.4-0.4,0.6-1.8,2.2-3
		c2.4-1.9,2.7-2.7,1.6-4.7c-1.5-2.8,0.7-5.9,6-8.1c4.1-1.7,5.1-5.1,4-13.3c-0.7-5.7-0.7-6,1.2-4.5c1.4,1.2,1.8,2.7,1.3,5.4
		c-0.6,3-0.1,4.5,2.4,7.5c2.7,3.2,3.5,3.5,5.6,2.4c2.1-1.1,2.3-1,1.7,0.7c-0.4,1.1-0.8,2.2-0.8,2.5s-1.7,1.3-3.8,2.4
		c-2.1,1.1-6.2,3.9-9.2,6.4c-4.8,3.9-9.6,7.1-10.9,7.1C1164.1,949.3,1163.6,949,1163.2,948.6L1163.2,948.6z M1038.3,933.3
		c-2.5-2.6-2.9-2.7-5.3-1.2c-3,2-8.8,0.8-13.4-2.7c-2.4-1.9-2.6-2.5-1.4-4.9c1.1-2,1.1-3.4,0.1-5.6c-0.7-1.6-1.3-3.9-1.3-5.2
		c0-2.9-1.9-3-3.4-0.2c-0.6,1.1-1.5,1.7-1.9,1.3c-0.4-0.4,1-2.7,3-5.1c5.1-5.8,3.1-7.4-3.6-2.9c-2.9,2-5.5,4.1-5.7,4.7
		c-0.2,0.7-1.6-1.4-3.1-4.5c-1.6-3.4-4.4-6.8-6.9-8.4c-3.8-2.5-5-2.7-12.2-2c-10.6,1.1-20.8,3.7-27.4,7c-3,1.5-9,3.1-13.5,3.6
		c-4.5,0.5-11.6,2.2-15.8,3.7c-6.4,2.4-8.3,2.7-11.6,1.6c-4.4-1.4-6.2-4.4-3.4-5.5c1-0.4,2.9-3.1,4.1-6c2-4.7,2.1-6.1,0.9-12.2
		c-1-5-1-9.7-0.1-17.4c0.7-5.8,0.9-11.7,0.6-13.1s0.2-4.8,1.3-7.6c1.9-4.9,2.3-5.2,15-10.6c7.2-3,14.5-5.5,16.3-5.5
		c4.9,0,10.9-4.6,14.3-11c2.1-3.9,3.5-5.4,4.7-4.9c3.4,1.3,4.1,1.1,3.9-1.5c-0.2-1.6,0.5-2.8,1.9-3.3c1.2-0.4,3.5-2.5,5-4.8
		c1.6-2.3,4.8-4.9,7.4-5.9c4.3-1.7,4.7-1.7,7.1,0.4c4.3,3.9,7.4,5.1,8.9,3.3c0.7-0.9,1-1.9,0.5-2.3c-1.4-1.4,4.8-9.1,7.9-9.9
		c1.6-0.4,5-1.7,7.4-3c3.8-1.9,5.2-2,9.4-0.9c9.2,2.5,9.5,2.9,6.1,8.1c-4.4,6.7-3.2,9.3,7.6,16.9c5,3.5,9.7,6.2,10.5,5.9
		c0.8-0.3,3.2-3,5.4-6c3-4.1,4.2-7.2,4.6-12c0.7-6.9,4-16.5,5.7-16.5c0.6,0,1.8,2.8,2.9,6.3c1,3.5,3.1,7.5,4.7,9
		c3.7,3.5,5.8,13.2,4.2,18.9c-1.1,3.8-0.9,4.4,2.9,8.3c2.2,2.3,5.8,7.9,7.8,12.4s5.8,11,8.3,14.3l4.6,6l-1.3,9.3
		c-0.9,6.8-2.4,11.3-5.3,16.4c-4.5,7.9-11.1,15.4-14.6,16.5c-1.3,0.4-4.2,3.4-6.5,6.6c-2.3,3.2-4.7,5.8-5.4,5.8
		c-0.6,0-3.3,2.8-6,6.1c-4.4,5.6-5.3,6.1-9.9,6.2c-3.6,0.1-6.3,1-9.2,3.3l-4.1,3.2L1038.3,933.3L1038.3,933.3z M462.3,908.5
		c-2.5-2.5-2.9-3.8-2.4-7.2c0.5-3.2,0-5.1-2.2-8.5c-1.6-2.3-2.9-4.8-2.9-5.6c0-0.7-2.1-4.1-4.6-7.5c-3.9-5.3-4.8-7.4-5.4-14.1
		c-1.1-11.8-4.9-24.6-10-33.8c-2.5-4.6-4.9-10.5-5.3-13.1c-0.9-5.7,1.4-14.1,6.7-24.4l3.5-6.8l-2-5.9c-1.1-3.3-1.6-7.2-1.2-8.9
		c0.5-2,0-4.3-1.5-6.7c-1.3-2.1-3.1-6.7-4.1-10.2c-1.4-4.8-3.3-7.9-7.1-11.7c-7.5-7.3-8.5-10.2-6.1-18.2
		c4.7-16.3-0.4-25.8-12.9-23.9c-4.9,0.7-5,0.6-5.7-2.8c-0.5-2.6-2-4.2-5.5-6c-4.7-2.4-6.7-2.4-12.4-0.1c-1.3,0.5-6.6,2.4-11.8,4.1
		c-7.8,2.6-10.2,2.9-13.6,1.9c-3.2-0.9-5.9-0.7-12.5,1.1c-6.8,1.9-9.3,2.1-13,1.1c-7.7-2.1-20.9-14-22.8-20.5
		c-1.5-5-10.5-16.7-13.6-17.6c-2-0.5-2.2-1-1-1.7c1.2-0.8,1-1.2-0.9-1.7c-3-0.8-3.3-3.2-0.4-3.2c1.8,0,1.8-0.2,0.3-1.2
		c-1.1-0.7-1.2-1.2-0.3-1.2c0.9,0,0.6-1.5-1-4.2c-2.3-3.8-2.3-4.3-0.6-6.3c5.3-5.8,6.4-18.4,2.4-26.3c-1.9-3.8-0.7-9,3.4-14.4
		c1.5-2,4.5-7,6.7-11.1c3.7-7.1,12.1-16.9,14.3-16.9c2.5,0,10.5-8.7,10.5-11.3c0-6.1,3.6-12.1,9.5-15.9c3.2-2,6.9-5.5,8.3-7.7
		c2.8-4.5,3.2-4.7,6.5-2.4c1.3,0.9,4.5,2,7.1,2.4c4,0.7,5.9,0.2,11.8-3c10.2-5.5,16.5-6.8,28.2-6.1c7.7,0.5,11.2,0.2,14.9-1.3
		c5.5-2.2,10.2-0.9,9,2.5c-0.4,1-0.2,2.5,0.5,3.3c0.8,1,0.8,2.5,0,4.8c-1.1,2.9-0.8,3.7,1.8,6.5c1.7,1.8,4.7,3.6,6.8,4
		c9.5,1.9,12.2,3.1,14.2,6.4c1.4,2.4,3.3,3.7,6.4,4.3c2.4,0.5,5.9,1.6,7.8,2.6c3.2,1.6,3.6,1.6,6.3-0.9c1.8-1.7,2.6-3.5,2.2-4.8
		c-0.4-1.2-0.1-3.2,0.6-4.5c1.8-3.4,7-3.1,15.1,1c8.8,4.4,25.6,7.6,31.5,5.9c2.9-0.8,5.6-0.8,8.1,0c8.2,2.5,12.3,0.5,13.5-6.3
		c0.4-2.3,1-4.1,1.4-4.1c0.8,0,1.2-3.4,1.3-10.9c0-2.4,0.6-4.4,1.3-4.4c0.8,0,0.8-0.9-0.1-2.5c-1.5-2.7-4.4-2.7-11.4,0.2
		c-3.3,1.4-4.3,1.3-7.3-0.5c-3.9-2.3-7.9-2.6-9-0.8c-0.9,1.4-6.9,0.4-10.2-1.6c-2.4-1.5-4.6-5.8-4.6-9.1c0-1.2-1.2-3.1-2.7-4.1
		c-2.3-1.6-2.4-2-0.9-3c1-0.6,3-0.9,4.5-0.5c1.9,0.4,3.6-0.3,5.8-2.5c2.1-2.1,4.6-3.2,7.4-3.3c2.3-0.1,5.7-1.2,7.5-2.4
		c3.9-2.6,12.8-1.9,19.6,1.6c9.3,4.6,17.5,4.4,20.8-0.7c1.7-2.6,1.7-3.2,0.1-5.7c-1-1.5-5.8-5-10.6-7.8l-8.8-5l1.7-3.2
		c0.9-1.8,1.4-3.5,1-3.9c-0.4-0.4-0.2-1.4,0.3-2.2c0.5-0.9,1.1-2.2,1.2-3.1c0.3-1.8-1.6-1.3-11,2.9c-5.5,2.4-6.3,3.2-5.1,4.6
		c0.8,1,2.6,1.8,4,1.8c1.9,0,1.5,0.6-2,2.4c-4.2,2.2-4.7,2.3-7.5,0.5c-2.4-1.5-2.7-2.3-1.5-3.6c1.1-1.3,0.9-1.8-0.8-2.5
		c-1.2-0.5-2.8-1.6-3.5-2.5c-3.4-4.5-14.1,7.4-17.2,19.1c-1.5,5.5-1.4,5.8,1.3,7.9l2.9,2.2l-5.3,1.1c-2.9,0.6-6.8,0.7-8.7,0.2
		c-3.4-0.9-7.8,0.5-7.8,2.5c0,0.6-0.8,0.8-1.8,0.4s-2.5-0.1-3.5,0.7c-1.4,1.2-1.3,2.2,1.1,6.6c2.6,4.8,2.7,5.5,1,8.7
		c-2,4-3.9,3.7-6.7-1.1c-2-3.4-2-3.4,0.7-3.8c3.3-0.5,3.5-2.6,0.3-3.1c-7.3-1.2-11.2-5-11.2-11.1c0-4.7-4.4-9.9-9.7-11.5
		c-2.8-0.8-5.8-2.6-6.7-3.9c-0.9-1.3-3.6-3.2-5.9-4.1c-2.3-1-5-2.8-5.8-4c-1.2-1.8-2-2-3.9-1c-1.3,0.7-2.3,2-2.3,2.9
		c0,3.1,15.1,16.9,22.4,20.7c7.8,3.9,9,5.3,3.6,4.2c-4.8-1.1-6.1,0-4.5,3.6c1.2,2.5,1,3.3-1.4,5.6l-2.7,2.6l0.6-3.5
		c1-5.6-6.4-13.6-12.5-13.6c-2.2,0-10.8-8.3-13.1-12.7c-2.4-4.7-5.1-5.6-8.9-3c-5.7,3.9-10,5.2-14.5,4.4c-6-1-9.7,1.1-8.8,4.9
		c0.5,2,0.2,2.9-0.9,2.9c-0.9,0-3.2,1.3-5,3s-3.8,3-4.3,3c-1.5,0-5.6,7.5-5.6,10.1c0,2.5-4.6,7.5-9.1,9.8c-1.4,0.7-4.7,1.3-7.3,1.3
		c-3.6,0-5.1,0.6-6.1,2.4c-1.3,2.4-1.3,2.4-4.4-0.6c-2.8-2.8-4.5-3.6-10.2-4.4c-3-0.5-3.5-7.3-1.3-17c1-4.2,1.4-8.8,1.1-10.3
		c-1.1-4.5,2.4-7.1,8.2-6.2c13.5,2.1,21.4,2.2,23.3,0.3c2.5-2.5,3.7-11,2.1-15.7c-1-3.1-2.4-4.3-6.6-5.9c-6.1-2.3-6.3-4.6-0.3-4.7
		c2.3,0,5.6-1,7.3-2.1c1.7-1.1,3.7-1.8,4.3-1.4c1.7,1,8-2.6,10.1-5.8c1-1.5,3-3.1,4.4-3.5c1.4-0.4,5.3-3.1,8.5-6.2
		c4.6-4.3,7-5.6,11-6.1c4.9-0.6,9.8-4.6,7.5-6.1c-1.4-0.9-2.6-6.7-1.8-8.8c0.4-1,2.1-2.7,3.7-3.8l3-2l-0.8,4.9
		c-0.7,4.2-0.5,4.8,1.3,4.5c1.1-0.2,3.3-1,4.8-1.8c2.2-1.2,2.8-1.2,3.4,0.4c1,2.6-1.8,5.7-3.7,4.1c-1.1-0.9-1.8-0.9-2.4,0.1
		c-0.6,1-1.1,0.9-1.8-0.2c-0.5-0.9-1.2-1.3-1.6-1c-0.3,0.3,0.6,2.1,2.1,4c2.5,3.1,3,3.3,6.5,2c3.1-1.1,4.5-1,7.1,0.4
		c2.9,1.5,3.9,1.4,9.6-0.7c4.9-1.9,6.9-2.1,9.1-1.1c2,0.9,3.5,0.9,5.4-0.1c5.3-2.7,6.8-4.8,6.1-8.6c-1-5.6,0.8-7.5,5.5-5.7
		c3.2,1.2,4.1,1.2,5.6-0.3c1.5-1.5,1.4-2.1-1.1-4.8c-2.4-2.6-2.6-3.2-1.1-4.2c1-0.6,4.5-0.9,8-0.5c6.3,0.7,14.1-1.8,12.7-4
		c-1.2-1.9-8.4-2.5-14.5-1.1c-5.4,1.2-6.8,1.1-11-0.8c-6.4-2.9-7.2-6.3-2.8-12.5c5.7-7.9,6.7-10.4,5.1-12.4
		c-2.4-2.9-4.8-1.9-10.2,4.1c-2.9,3.2-6.8,6.5-8.8,7.3c-1.9,0.8-4.3,3-5.3,4.9c-1.6,3.1-1.6,3.8,0,6.2c1,1.5,2.9,3.1,4.2,3.5
		c3.6,1.1,2.9,3.3-2.3,6.9c-1.6,1.1-3.7,4.2-4.7,6.9c-1.3,3.4-3.2,5.7-6.2,7.4c-4.2,2.4-4.4,2.4-6.7,0.3c-1.3-1.2-2.7-3.6-3.1-5.4
		c-0.4-1.8-2.2-5-3.9-7.1l-3.2-3.9l-4.1,2.5c-2.3,1.4-5.2,2.5-6.5,2.5c-3.7,0-8.1-4.1-8.4-7.8c-0.1-1.9-0.6-4.3-1.1-5.4
		c-1.1-2.6,4.2-7.6,9.7-9.1c5.5-1.5,16.7-9.4,18.6-13c0.8-1.6,3.7-4.9,6.4-7.3s4.8-4.9,4.8-5.5s2.5-2.1,5.6-3.2s8.3-3.1,11.5-4.4
		c4-1.6,9-2.5,15.4-2.7c11.1-0.3,18.4,1.2,24.5,5c3,1.9,5.4,2.5,7.7,2.1c4.1-0.8,25.8,5.9,26.7,8.3c0.9,2.4-5.3,4.6-10.7,3.8
		c-2.5-0.4-7.5-1.3-11.3-2.1c-5.1-1.1-7.2-1.1-8.2-0.1c-1,1-0.5,1.7,1.9,2.8c1.8,0.8,4,3,4.9,4.8c2.4,4.6,10,8.4,14,6.9
		c3.8-1.4,3.8-1.9-0.2-4.1c-3.7-2-2-2.4,2.7-0.7c3.7,1.4,7.9-0.3,6.9-2.9c-0.5-1.2,0.8-2.1,4.5-3c7.8-2,8.4-2.3,7.7-3.9
		c-2.4-6-2.5-5.8,1.1-5.4c1.9,0.2,3.3,1,3.1,1.8c-0.2,0.8,0.8,2,2.2,2.8c2.1,1.1,3.7,0.7,9.3-2.2c8.3-4.3,14.7-5.7,17.1-3.8
		c1.3,1.1,3.6,1.1,10,0c4.5-0.8,8.8-1.1,9.4-0.7s1.5,0.1,1.9-0.5c0.9-1.5-1.6-4.9-3.1-4.1c-1.7,1.1-7.3-0.8-6.1-2
		c1.2-1.2,34.1,6.4,36.1,8.4c1.3,1.3,5.5-0.4,5.5-2.3c0-0.6-2.3-2.3-5.2-3.7c-8.9-4.3-9.5-11.2-1.1-13.3c4.8-1.2,6.9,0.2,13.7,9.1
		c8.7,11.6,8.5,11,5.6,15c-2.1,3-2.2,3.7-0.8,4.2c2.8,1.1,8.7-2.7,9.5-6c1-3.9-0.8-7.2-5.2-9.5c-3.4-1.8-5.9-5-5.9-7.7
		c0-0.9,1.3-1.2,3.8-0.7c3.8,0.7,7-0.7,15.7-6.9c2-1.4,5.3-2.3,8.7-2.4c6.9-0.2,9.1-1.3,7.1-3.7c-0.8-0.9-1.2-1.9-0.9-2.2
		c1.5-1.5,21-4.2,25.4-3.6c4.3,0.6,5.6,0.3,9.2-2.4c2.3-1.7,4.1-3.6,4.1-4.2c0-1.4-10.3-1.3-11.2,0.1c-1.2,2-2.8,1.3-2.4-1
		c0.4-2-0.6-2.3-9.2-3c-23.5-1.8-25.4-2.3-22.6-5.1c2.5-2.5,8.6-2.4,13.6,0.1c2.1,1,5.5,1.9,7.7,1.9s4.2,0.5,4.6,1.2
		c0.4,0.6,2.5,1.2,4.6,1.2c5.9,0,17.3,2.5,16.6,3.7c-0.3,0.6,0.8,1,2.4,1s4.8,0.9,6.9,2c2.8,1.5,6.7,2,15,2.1
		c8.9,0,11.9,0.5,14.5,2.2c1.8,1.2,3.2,2.5,3.2,2.9c0,0.4-2.7,2.2-6.1,4.1c-8,4.4-6.3,6.4,3.4,3.8c6.3-1.6,7.7-1.6,12.9-0.1
		c4.3,1.3,6.9,1.4,9.8,0.6c2.9-0.8,5.9-0.7,10.9,0.7c5.3,1.4,8,1.5,11.3,0.6c7.6-2.1,16.9-1.5,22.4,1.4c2.7,1.5,7.7,4.2,11,6
		c6,3.3,6.3,3.3,10.4,1.4c3.5-1.6,5.4-1.7,10.5-0.7c5.1,1,7,0.9,9.8-0.6c2.8-1.5,3.3-2.2,2.2-3.5c-2.1-2.5,5.3-3.4,14.3-1.8
		c4.1,0.7,9.4,1.5,11.7,1.6s6.7,1.5,9.9,2.9c4.8,2.2,8.4,2.7,22.5,3c13.4,0.4,17.6,0.9,20.8,2.6c3.3,1.7,7,2.2,19.4,2.3
		c11.4,0.1,16.5,0.7,19.9,2.1c5.5,2.3,7.6,1.5,4.7-1.8c-2.1-2.4-2.1-2.4,6.1-1.6c13.8,1.4,30.4,4.4,36,6.6c2.9,1.1,8.5,2.4,12.4,2.9
		c3.9,0.5,9.6,2.1,12.6,3.7c4.6,2.3,6.1,2.6,9.1,1.6c4.1-1.4,6.7-0.4,12.9,5l3.9,3.3l-2.9,0.7c-2.9,0.7-10.6-1.2-13.3-3.3
		c-0.8-0.6-1.9-0.8-2.4-0.5c-0.6,0.3-3.3-0.2-6.1-1.1c-6.6-2.3-9.5-1.4-6.5,1.9c2.1,2.3,2,2.3-1.9,2c-7.3-0.5-5.3,1.7,5.4,5.8
		c5.8,2.3,10.9,4.4,11.2,4.7c1.1,1.1-2.5,2.4-5.2,1.9c-2.9-0.6-10.1,2.6-10.1,4.4c0,0.6-1.1,2.2-2.5,3.5c-2.3,2.2-2.8,2.2-5.9,0.6
		c-2.9-1.5-3.8-1.5-6.6-0.1c-1.8,0.9-4.8,2-6.8,2.5c-1.9,0.5-4.2,1.4-5,2.1c-2.4,2,1.8,7.7,7.7,10.6c3.2,1.6,5.5,3.6,6.2,5.6
		c0.6,1.7,1.9,4.5,2.9,6.2c1.6,2.8,1.6,3.2-0.1,3.8c-1.2,0.5-1.6,1.4-1.1,2.8c0.5,1.1,1,3.4,1.1,5c0.2,1.6,0.7,3.8,1.2,4.9
		c0.6,1.4,0.1,2.2-1.8,2.8c-2.1,0.7-3.5-0.1-6.9-3.9c-2.4-2.6-6.3-6.2-8.7-8c-2.4-1.8-6.8-6.4-9.7-10.3c-5.1-6.8-5.2-7.1-3.5-10.4
		c1-1.9,1.8-4.6,1.8-6.1c0-1.5,0.8-4,1.7-5.6c1.7-3.1,1-5.5-2.6-9.7c-2.4-2.7-6.7-0.7-5.6,2.7c1,3.1-2,4.1-5.5,1.8
		c-1.5-1-5-2.2-7.7-2.6c-4.7-0.8-5.1-0.6-6.3,2.6c-0.7,1.9-1,4.8-0.7,6.6c0.5,2.7,0.2,3.3-2.6,3.9c-1.9,0.4-5.1-0.1-7.8-1.2
		c-2.9-1.2-5.7-1.6-7.6-1c-1.7,0.5-7.4,0.9-12.7,1c-8.4,0.1-10,0.5-12.6,2.9c-1.6,1.5-3.6,5.2-4.3,8.3c-0.8,3-2.1,6.7-3.1,8.1
		c-1.6,2.5-1.5,2.8,3.2,5.1c5,2.6,10.5,3.2,14.7,1.8c3.2-1.1,13,6.5,16,12.5c1.2,2.4,3.3,5,4.6,5.7c4.8,2.6,5.8,19.5,1.8,30.6
		c-2.8,7.7-5.9,10.2-10.5,8.4c-1.8-0.7-3.4-1.2-3.6-1.2c-0.2,0-1.5,2.2-2.9,4.8c-1.8,3.5-2.2,5.3-1.3,6.3c1.7,2.1,0.4,4.8-3,6.3
		c-1.6,0.7-2.9,1.8-2.9,2.5s3.7,3.7,8.2,6.8c5.7,4,8.8,7,10.2,10.1c1.1,2.5,1.8,4.7,1.5,4.9c-0.3,0.2-2.7,1.5-5.4,2.9L963,543
		l-2.9-6.7c-3.3-7.6-6.1-10.6-11.1-11.9c-2.5-0.7-3.4-1.6-3.4-3.7c0-1.9-1.2-3.5-3.8-5c-3.8-2.2-3.9-2.2-7.9,0.3
		c-4,2.5-4.1,2.5-5.3,0.2c-0.7-1.3-1.3-3.2-1.3-4.1c0-1-1-2.3-2.2-3c-1.8-1-2.9-0.4-6.3,3.2c-2.2,2.4-5.1,5-6.3,5.7
		c-2,1.1-2.1,1.6-0.7,3.2c0.9,1,3.9,3.2,6.7,4.8c4.5,2.5,5.3,2.6,6.8,1.1c1.4-1.4,2.6-1.5,6.9-0.3l5.2,1.4l-2.9,1.9
		c-5.4,3.6-7,5.5-7.8,8.7c-0.6,2.7-0.3,3.4,2.1,4.5c1.6,0.7,4,3.6,5.4,6.4c1.4,2.8,4.1,6.1,6.1,7.2c4.3,2.6,5.6,5.3,3.1,6.7
		c-2.3,1.3-1.2,3.2,1.9,3.2c3.7,0,3.7,2.2,0.1,14.9c-4.3,15.3-8.2,20.5-18.4,24.2c-4,1.5-8.9,2.8-10.8,2.9c-4.5,0.3-8,2.2-11.1,6.1
		l-2.4,3.1l-1.1-3c-1.5-3.9-4.9-4.9-9.7-2.8c-4.5,1.9-7.4,4.9-8.6,8.8c-1.1,3.5,2.7,9.6,8.9,14.5c5.1,4,10.8,14.2,12.2,21.6
		c1.2,6.4-0.9,10.7-6.5,13.2c-2.5,1.1-4.9,3-5.3,4.2c-0.9,2.8-6.1,6.2-7.1,4.6c-0.4-0.6-0.4-2.2,0-3.4s0.4-3,0-4.1
		c-0.6-1.5-1.2-1.7-3.1-0.7c-1.9,1-2.7,0.8-4.3-1.5c-3.9-5.6-15-14.6-18.1-14.6c-1.1,0-1.5,1.3-1.3,4.1c0.2,2.3-0.3,6.7-1,9.9
		c-1.2,5.1-1,6.1,1.2,9c1.3,1.8,2.8,4.7,3.2,6.3c0.4,1.7,3.8,5.4,7.7,8.6c6.5,5.2,7.2,6.3,9.9,14.9c1.6,5.1,2.9,9.8,2.9,10.4
		c0,2-2.5,1.2-7.6-2.5c-5.3-3.8-8.7-9.9-11.6-20.6c-1.2-4.6-2.6-6.6-6.4-9.4c-4.7-3.5-4.8-3.8-4.5-9.5c0.2-3.2,0.7-7.9,1.2-10.2
		c0.6-3.3,0.1-5.7-2.2-10.6c-1.7-3.5-3.6-8.8-4.4-11.8c-1.7-6.8-4-7.9-8.2-4c-1.7,1.6-3.5,3-3.9,3c-1.9,0-4.5-4-3.8-6
		c1.1-3.5-5.8-15.9-9.8-17.6c-2.2-0.9-4.2-3.1-5.6-6.1c-2.4-5.2-5-7.2-7.6-5.8c-1,0.5-4.8,1.6-8.5,2.3c-6.8,1.4-9.3,3.5-8.4,7
		c0.3,1.3-0.9,2.6-3.7,4c-2.3,1.1-4.8,3.3-5.6,5s-2.4,3.3-3.6,3.7s-3.2,2.2-4.3,4c-1.1,1.8-4.4,5.1-7.3,7.4c-4,3.1-5.2,4.8-5,6.9
		c1.2,12.6-0.6,23.1-5,29.4c-4.2,6.1-4.5,6.3-8.1,4.6c-2-0.9-3.2-2.7-3.7-5.3c-0.4-2.2-2.8-8.4-5.3-13.7
		c-15.1-32.4-17.3-38.6-16-44.5c0.9-4-1.2-9.9-3.2-9.3c-0.8,0.3-1.5,1.2-1.5,2.2c-0.1,5.4-6.2,6.2-10.9,1.5l-3.1-3.1l2.7-1
		c3-1.1,2.8-4.1-0.3-3.6c-1.1,0.2-3.6-1-5.6-2.7c-2-1.7-4-3-4.6-3s-1.4-1.1-1.8-2.4c-1.1-3.4-7.4-6.4-10.5-5
		c-2.8,1.3-28.5,1-32.8-0.3c-1.5-0.5-4.4-2.7-6.4-4.9c-3.5-4-3.6-4-8.9-2.6c-5,1.3-5.7,1.2-12.5-2.2c-5.8-2.9-7.6-4.5-9.4-8.5
		c-2.3-5.1-7.4-8.8-10.5-7.6c-1,0.4-2.1,2.2-2.5,4.1c-0.6,2.7,0,4.5,2.9,8.4c2,2.7,4.2,7,4.9,9.5c1.4,5.3,4.3,6.9,6.6,3.7
		c1.4-1.9,1.8-2,2.8-0.5c0.6,1,0.9,2.3,0.7,2.9c-0.7,2,6.2,5.4,9.3,4.6c1.6-0.4,5-3.1,7.6-6.1c4.1-4.6,5.5-4.9,4.8-1.1
		c-0.5,2.6,1.6,5.7,5,7.5c5.3,2.7,12.6,8.8,12.6,10.4c0,0.8-1.4,2.7-3.1,4.2s-4.1,4.9-5.4,7.4c-3.1,6.1-12.1,14.9-15.2,14.9
		c-3.5,0-8.8,3-10.9,6.2c-1,1.5-3.6,3.6-5.8,4.7c-11.2,5.6-24.7,11.3-28.5,12c-4.1,0.8-4.4,0.6-6.6-3.7c-1.2-2.5-2.7-7.4-3.1-11
		c-0.6-4.6-1.8-7.6-4.3-10.4c-1.9-2.1-3.4-4.4-3.4-5s-2.1-3.3-4.7-6c-3.2-3.3-5.3-7-6.7-11.5c-1.1-3.7-3.2-8.2-4.8-10.2
		c-10.8-13.5-14-18.2-15.7-23.2c-2.1-6.6-4-7.6-4.8-2.8l-0.6,3.4l-4-5c-6.2-7.8-6.9-4.2-1.2,5.2c2.7,4.5,7.1,12.4,9.7,17.6
		c2.6,5.2,6,11.1,7.5,13.1c1.6,2.1,2.8,5.3,2.8,7.5c0,4.5,1.3,7.2,6.5,13.7c2.1,2.6,4.2,6.4,4.6,8.4c0.6,2.6,2.8,5.3,7.7,9.3
		c7.4,6,12.3,12.2,13.5,17.4c0.5,2,2.2,4,4.3,5.1c3.3,1.7,4.5,1.7,14.9-0.6c6.2-1.3,12.8-3.2,14.6-4.2l3.3-1.7l0.8,4.7
		c0.7,4.2-0.1,6.3-8.5,22.4c-9,17.3-9.5,17.9-18.5,25c-5.1,4-10.4,8.9-11.8,10.9s-5.9,7.3-10,11.9c-12,13.3-13.6,25-5.7,40.7
		c2,4,2.8,7,2.3,8.9c-0.4,1.6-0.1,5.6,0.6,8.9c1.1,5.2,1,6.6-0.9,10.4c-2.8,5.5-5,7.4-12.8,11.4c-3.4,1.7-6.2,3.6-6.2,4.2
		s-2.4,3.8-5.3,7.1s-5.3,6.5-5.3,7.2s1.1,3.3,2.4,6c4,7.9,1.3,13.6-8.3,17.6c-4.1,1.7-5.4,5.1-4.4,11.3c0.5,3.2,0.2,4.3-1.6,5.3
		c-1.3,0.7-3.6,3.2-5.1,5.6c-4.8,7.6-18.8,21.1-25.1,24.2c-5.3,2.7-6.6,2.9-10.5,1.8c-3.4-0.9-6.2-0.8-11.9,0.6
		C465,912,465.9,912.1,462.3,908.5L462.3,908.5z M617.9,531.8c3-1.6,3.5-2.4,3.5-6.9c0-3.2-0.7-5.7-1.8-6.7c-1-0.8-2.7-3.1-3.7-5
		c-1.6-3.2-1.6-3.4,0.1-2.8c2.3,0.9,5.4-0.2,5.4-1.8c0-0.6-1.1-2.7-2.4-4.6c-2-2.8-2.8-3.2-4.7-2.2c-1.5,0.8-2.3,0.8-2.3,0
		c0-0.7-2.1-2.3-4.7-3.6c-5.7-2.9-7.7-6.1-6-9.5c1.3-2.5,6.2-4.3,8.2-3c2.8,1.7,3.6-0.8,1.3-4c-5.5-7.8-13.3-7.3-22.8,1.5
		c-6.2,5.7-6.7,7.2-3.2,9c1.3,0.7,2.4,2.1,2.4,3c0,1,2.1,4,4.7,6.8c5.9,6.4,7,9.3,6.3,16.9l-0.6,6.1l8.1,4.2
		c4.5,2.3,8.3,4.2,8.5,4.2C614.3,533.6,616,532.8,617.9,531.8L617.9,531.8z M585.4,861.7c-3.3-1.9-3.8-2.9-4.7-9.9
		c-0.7-5.6-0.4-6.8,2.9-12.2c3.4-5.5,3.6-6.6,2.9-12.5c-1.1-8.6,0.8-13.2,5.8-14.3c4.7-1,15-10.1,17.4-15.4l1.9-4.1l1.3,2.9
		c3.3,7.2,2.9,10.3-2.8,26.1c-3,8.4-6.3,18.5-7.3,22.4c-3,12.5-4.8,15.5-9.7,17C587.8,863.4,588.3,863.4,585.4,861.7L585.4,861.7z
		 M1167.2,841.2c-3.8-4.1-6-7.7-6-9.4c0-4,0.6-3.6,4,2.2c1.6,2.8,4.6,6.6,6.5,8.5c2,1.9,3.6,3.9,3.6,4.4
		C1175.3,849.1,1172.8,847.4,1167.2,841.2L1167.2,841.2z M640.3,839.5c0-0.6,0.5-1.2,1.2-1.2s1.2,0.5,1.2,1.2s-0.5,1.2-1.2,1.2
		S640.3,840.2,640.3,839.5z M648.6,835.4c0-0.3,0.5-0.8,1.2-1.3s1.2-0.2,1.2,0.5s-0.5,1.3-1.2,1.3S648.6,835.7,648.6,835.4z
		 M1183.9,813.9c-2.4-5.2-1.6-7.2,0.9-2.2c2.6,5.2,2.7,5.4,1.4,5.4C1185.8,817.1,1184.7,815.6,1183.9,813.9z M1188.4,813
		c-0.1-1.2,0.2-1.9,0.6-1.6c0.4,0.4,0.4,1.4,0.1,2.3C1188.7,814.7,1188.5,814.4,1188.4,813L1188.4,813z M586.6,795.8
		c-0.4-0.6-0.2-1.2,0.5-1.2s1.3,0.5,1.3,1.2s-0.2,1.2-0.5,1.2S587,796.5,586.6,795.8z M1105,784.7c-7.5-2.4-10.9-4.5-13.8-8.9
		c-3.4-5-9.5-8.8-12.7-7.8c-1.3,0.4-3.4,2.6-4.7,4.9c-2.3,3.9-2.7,4.1-6.9,3.3c-2.4-0.4-5.8-2.1-7.6-3.7c-2.2-2-3.9-2.7-5.6-2.1
		c-1.3,0.4-3.3,0.3-4.3-0.3c-1.6-0.9-1.5-1.3,1.1-3c3-2,3-2,1-6.2c-1.6-3.4-3.9-5.2-11.2-8.8c-5-2.5-10.7-4.6-12.6-4.6
		c-4.4,0-6.2-4-2.9-6.5c2-1.4,1.7-1.8-3.5-4.3c-5.5-2.6-5.5-2.8-2.9-4.2c1.5-0.8,3.8-1.5,5.3-1.5c2.8,0,6.3,3.9,6.3,7.1
		c0,1.1,1.1,3.4,2.6,5.2c2.5,3.2,2.6,3.2,4.4,0.9c1-1.3,4.3-3.7,7.3-5.5l5.4-3.1l7.5,3.4c4.2,1.9,10,4.3,13.1,5.4s9.2,4.4,13.6,7.3
		c8.4,5.5,12.1,10.2,10,12.7c-1.7,2.1,5,11.4,12,16.7C1113.6,786.8,1113.4,787.4,1105,784.7L1105,784.7z M1156.4,784.6
		c-0.9-1.1-1-1.8-0.2-1.8c1.4,0,3.1,2.2,2.3,3.1C1158.2,786.2,1157.3,785.6,1156.4,784.6L1156.4,784.6z M958,779.8
		c-1.7-0.9-2.2-1.6-1.2-1.7c2.1,0,5.5,1.9,4.7,2.7C961.2,781.2,959.6,780.7,958,779.8z M978,778.2c3.3-4.7,8.6-6.7,13.4-5.2
		c3.5,1.1,3.6,1.2,0.8,1.3c-1.7,0.1-5.5,1.7-8.6,3.7C976.6,782.5,974.9,782.6,978,778.2L978,778.2z M1149.3,779.9
		c-1.6-1.9-1.2-2.2,1.7-1.1c1,0.4,1.9,1.2,1.9,1.8C1152.9,782.2,1151,781.8,1149.3,779.9z M1154.9,778.8c-0.4-1.2-0.8-3-0.7-4.1
		c0.1-1.3,0.5-1,1.2,0.9c0.6,1.6,1,3.4,0.7,4.1C1155.9,780.4,1155.3,780,1154.9,778.8L1154.9,778.8z M944.1,775
		c-0.8-0.3-1.2-1.1-0.8-1.7c0.9-1.5,8.5-1.4,9.4,0.1c0.4,0.6,0,1.2-0.8,1.2c-0.9,0-2.6,0.2-3.9,0.5
		C946.7,775.4,944.9,775.3,944.1,775L944.1,775z M961.6,774.1c-2.1-2.6,0.3-3.4,5.9-1.9c5.6,1.5,5.6,1.7-0.2,2.8
		C964.3,775.6,962.6,775.3,961.6,774.1z M1139,773.4c-0.8-1.3-1-2.4-0.3-2.4c0.6,0,1.7,1.1,2.4,2.4c0.7,1.3,0.8,2.4,0.3,2.4
		C1140.9,775.7,1139.8,774.7,1139,773.4z M1146.4,772.2c-3.2-3.5-1.5-4,1.8-0.6c1.5,1.6,2.2,2.9,1.6,2.9S1147.6,773.5,1146.4,772.2
		L1146.4,772.2z M924.9,772c-4.2-0.6-10.2-1.9-13.2-2.9c-3.1-1-6.7-1.5-8-1c-2.7,0.9-14.2-2.5-14.2-4.2c0-3.8,10.6-4.1,16.2-0.4
		c2.1,1.4,3.8,1.4,8.2,0.4c4.9-1.1,5.9-1,8.8,1.2c1.8,1.3,3.8,2.4,4.5,2.4c2.3,0,9.4,4,8.8,4.9c-0.3,0.5-1.2,0.9-2,0.8
		C933.2,773.1,929.2,772.6,924.9,772L924.9,772z M1136.9,766.3c-1.2-1.3-1.6-2.4-1-2.4c0.6,0,2.1,1.1,3.3,2.4c1.2,1.3,1.6,2.4,1,2.4
		S1138.1,767.6,1136.9,766.3L1136.9,766.3z M1129.5,764.8c-0.7-0.8-1.6-3.1-2-5c-0.7-3.1-0.6-3.3,0.7-1.2c0.8,1.3,2.2,3.2,3.1,4.3
		c1,1.1,1.2,2.2,0.6,2.6C1131.2,765.9,1130.2,765.6,1129.5,764.8z M1104.5,761l-2.9-1.6l4.5-0.9c2.5-0.5,6.3-2.4,8.5-4.4
		c2.4-2.1,4-2.9,4-1.9c0,2.4-1.5,4.3-5.9,7.5C1108.1,763.2,1108.3,763.2,1104.5,761L1104.5,761z M882.9,756.4
		c-4.3-2.5-12.2-12-14.7-18c-1.4-3.2-4.5-8.5-7-11.7s-5.3-7.5-6.3-9.4c-1-1.9-4-5.7-6.7-8.3c-5.7-5.5-9.2-11.2-6.8-11.2
		c3.1,0.1,11.1,4.5,14.5,8.1c9.4,9.9,11.4,11.6,15.8,14.4c4.3,2.6,6.3,5.4,6.5,8.9c0,0.6,1.3,2.5,2.7,4.1c1.5,1.6,4.2,4.7,6.1,6.8
		c1.9,2.1,3.8,5.4,4.2,7.3C892.6,753.6,887.6,759.1,882.9,756.4L882.9,756.4z M645,755.7c0-0.6,0.5-1.2,1.2-1.2s1.2,0.5,1.2,1.2
		s-0.5,1.2-1.2,1.2S645,756.3,645,755.7z M957.4,755.6c-0.4-0.7-0.4-2.2,0-3.5c0.4-1.3-0.1-3.5-1.1-5.1c-1.6-2.5-1.6-3,0.2-5.6
		c1.1-1.6,2.4-5.7,2.9-9.3c0.6-4.4,1.8-7.3,3.7-9.2c2.6-2.6,3.2-2.7,9-1.6c5,0.9,6.9,0.8,9.6-0.6c4.5-2.3,4.9-2.2,3.4,1.1
		c-1.9,4.2-5.7,5.5-9.8,3.4c-7.2-3.8-16.8,1.8-11.7,6.9c1.9,1.9,2.9,2,6.3,1c5.9-1.7,8.2-1.4,4.5,0.6c-4.1,2.2-4.9,4.7-2.8,8.9
		c1,1.9,1.8,4.8,1.8,6.5c0,2.7-0.3,2.9-2.4,1.8c-1.3-0.7-3.2-3.2-4.2-5.6c-1.8-4.3-1.8-4.3-4.1-2c-2,2-2.1,2.9-1,6.9
		c1,3.6,0.9,4.8-0.3,5.6C959.3,757.1,958.3,757.1,957.4,755.6L957.4,755.6z M1119.4,749.3c-1.1-1.7-3.7-3.9-5.7-5
		c-2-1-3.4-2.1-3.1-2.5c1.8-1.8,12.1,6.5,11.2,9.1C1121.7,751.8,1120.6,751.1,1119.4,749.3L1119.4,749.3z M934,745.4
		c-1.8-0.9-4.2-1.4-5.3-1c-2.9,0.9-14.6-1.4-15.8-3.2c-0.9-1.4-3.6-10.1-5.1-16.2c-0.4-1.7,0-3.9,0.9-5.2c1.4-1.8,2.1-2,4.2-0.8
		c2.3,1.2,2.7,1,4-1.7c0.8-1.7,3.4-4.1,5.7-5.3c2.5-1.3,4.9-3.7,5.8-5.8c1-2.4,2.8-4,5.5-4.9c2.2-0.7,5.4-3.1,7.1-5.4s3.7-4,4.5-4
		c0.8,0,3.1,1.8,5.2,3.9l3.8,3.9l-3,4.1c-3.4,4.6-3.3,8.6,0.6,14.1l2.4,3.3l-2.9,1.9c-1.6,1.1-2.9,2.6-2.9,3.4
		c0,2.7-7.6,18.3-9.5,19.5C937.8,746.8,936.2,746.6,934,745.4L934,745.4z M1002.6,745.4c-2.4-0.6-2.8-2.7-0.4-2.7
		c0.9,0,3.4,0.4,5.6,0.8c3.3,0.7,3.6,0.9,1.6,1.7C1006.8,746.1,1005.6,746.2,1002.6,745.4L1002.6,745.4z M998.4,727.1
		c-0.9-0.9-1-2-0.2-3.6c0.6-1.2,0.9-2.7,0.5-3.3c-1.1-1.7,1.6-5.9,3.8-5.9c1.7,0,1.7,0.2-0.1,2.2c-1.6,1.7-1.7,2.9-0.8,5.3
		C1003.5,726.7,1001.5,730.1,998.4,727.1L998.4,727.1z M405.3,723.2c0-0.3,0.5-0.8,1.2-1.3c0.6-0.4,1.2-0.2,1.2,0.5
		s-0.5,1.3-1.2,1.3S405.3,723.5,405.3,723.2z M412.3,709.1c0-0.3,0.5-0.8,1.2-1.3c0.6-0.4,1.2-0.2,1.2,0.5s-0.5,1.3-1.2,1.3
		S412.3,709.4,412.3,709.1z M980.5,691.3c-2.3-5.3-2.6-5.5-6-4.7c-3.5,0.8-3.6,0.7-2.3-1.8c1.1-2,2.1-2.4,4.6-1.8
		c2.4,0.5,4,0,6.4-2.2c1.7-1.6,3.2-3.9,3.2-5.1c0-3,4.4,7,5.4,12.4c0.8,4.1,0.7,4.3-1.2,2.8c-2.7-2.3-5.4,0.1-3.1,2.8
		c0.9,1.1,1,1.8,0.3,1.8c-0.7,0-2.1,0.3-3.1,0.7C983.3,696.7,982.2,695.4,980.5,691.3L980.5,691.3z M765.1,693.4
		c-1.3-2.1-2.1-11.8-1.1-14.3c1-2.7,1.1-2.7,4.1,1.8c3.6,5.3,4.8,8.7,3.6,10.6C770.5,693.2,765.8,694.6,765.1,693.4L765.1,693.4z
		 M1028.9,687.3c0-0.6,0.5-1.5,1.2-1.9s1.2-0.2,1.2,0.5c0,0.6-0.5,1.5-1.2,1.9S1028.9,687.9,1028.9,687.3z M946.2,680.3
		c0-0.5,2.4-3.6,5.3-6.8c4.2-4.7,5.3-5.4,5.3-3.4c0,1.3-1.7,4.4-3.9,6.8C949.1,681,946.2,682.5,946.2,680.3z M971.8,677.2
		c-0.4-1.1-0.3-2.8,0.2-3.8c0.8-1.5,1.2-1.5,2.3-0.1c1,1.3,1,2.2-0.2,3.8C972.6,679.1,972.5,679.1,971.8,677.2z M67.3,672.6
		c0.7-0.9,1-1.9,0.5-2.4c-0.4-0.4,0.3-0.8,1.7-0.8c1.9,0,2.3,0.6,1.8,2.4c-0.4,1.4-1.6,2.4-3,2.4C66.5,674.2,66.3,673.8,67.3,672.6
		L67.3,672.6z M979.7,672.3c-0.4-1.2-1-2.6-1.3-3.1c-0.3-0.5,0-0.9,0.6-0.9c1.2,0,2.8,4.8,2,5.7
		C980.7,674.3,980.1,673.5,979.7,672.3z M967.7,669.2c-1.7-2,0-4.8,2.4-4.3c1.6,0.3,1.6,0.8,0.4,3.1
		C969.3,670.3,968.8,670.5,967.7,669.2z M981.7,665.1c-1.4-1.7-2.3-3.3-2-3.6c1-1,4.3,1.2,6,3.9C988.4,669.5,985,669.3,981.7,665.1z
		 M962.3,660.5c-1.1-1.1-1.9-2.5-1.9-3.3s1.2-0.2,2.6,1.2c1.4,1.4,2.3,2.9,1.9,3.3S963.3,661.6,962.3,660.5z M35.2,660.4
		c-0.4-0.4-0.8-1.3-0.8-2c0-0.7,0.6-0.7,1.4,0.2c0.8,0.8,1.1,1.7,0.8,2S35.6,660.8,35.2,660.4z M28.5,658.8c0-0.6,0.2-1.2,0.5-1.2
		s0.8,0.5,1.3,1.2s0.2,1.2-0.5,1.2S28.5,659.5,28.5,658.8z M84,656.4c0-0.6,0.2-1.2,0.5-1.2s0.8,0.5,1.3,1.2
		c0.4,0.6,0.2,1.2-0.5,1.2S84,657.1,84,656.4z M974.2,656.3c-1.2-0.7-3.4-0.9-5-0.5c-2.3,0.6-3.9-0.3-8.1-4.8
		c-6-6.2-7.2-8.8-5.4-12.2c0.7-1.3,1.2-3.9,1.2-5.9c0-6.4,4.3-6.2,7.4,0.4c1.7,3.7,1.8,4.4,0.1,8.4c-1.8,4.2-1.7,4.4,1.4,7.7
		c2.3,2.4,4,3.2,5.8,2.7c1.5-0.4,3.2,0.1,4,1.2C977.7,655.9,976.8,657.8,974.2,656.3L974.2,656.3z M76.9,648.8
		c0-0.3,0.5-0.8,1.2-1.3s1.2-0.2,1.2,0.5s-0.5,1.3-1.2,1.3S76.9,649.1,76.9,648.8z M73.4,640c0-0.6,0.5-1.5,1.2-1.9s1.2-0.2,1.2,0.5
		c0,0.6-0.5,1.5-1.2,1.9S73.4,640.7,73.4,640z M63.3,635.2c-0.4-0.7,0.1-0.9,1.1-0.5c2,0.8,2.4,1.6,0.7,1.6
		C64.6,636.4,63.7,635.8,63.3,635.2z M68.1,632.8c-0.4-0.6-0.2-1.2,0.5-1.2s1.3,0.5,1.3,1.2s-0.2,1.2-0.5,1.2S68.5,633.5,68.1,632.8
		z M73.4,632.8c0-0.6,0.2-1.2,0.5-1.2s0.8,0.5,1.3,1.2s0.2,1.2-0.5,1.2S73.4,633.5,73.4,632.8z M-7.8,629.7
		c-0.8-0.3-1.5-1.1-1.5-1.7c0-1.7,5.2-1.3,7.7,0.7c2.2,1.6,2.1,1.7-1.3,1.7C-4.8,630.3-7,630-7.8,629.7z M22.1,629
		c-1.1-0.6-3.4-0.8-5.2-0.4c-1.8,0.4-4.6,0.2-6.2-0.4c-2.5-1-2.3-1.1,1.9-1c6.3,0.1,8-0.9,6.4-3.9c-1.1-2.1-0.8-2.3,4.8-2.3
		c5.5,0,13.3,2.5,14.6,4.7C39.4,627.1,24.2,630.2,22.1,629L22.1,629z M44.7,629.8c-1.4-1.4,0.3-2.8,3.4-2.8c1.9,0,2.8,0.6,2.5,1.5
		C50.1,630,46,631,44.7,629.8z M899.2,627.9c-3.1-3.1,0-6.9,5.7-6.9c2.5,0,2.5,0,0.4,3.7C902.7,629.1,901.2,629.9,899.2,627.9z
		 M54.5,627.6c0-0.3,0.8-0.8,1.8-1.1c1-0.4,1.8-0.2,1.8,0.5s-0.8,1.1-1.8,1.1S54.5,627.9,54.5,627.6z M3.4,619.2
		c-0.4-0.4-2.9-0.7-5.5-0.7c-3.7-0.1-4.6-0.4-3.7-1.5c0.9-1.1-0.4-2.5-4.7-5.3c-8.5-5.5-13.3-6.6-19-4.3c-5.4,2.1-5.8,2.2-5.8,0.9
		c0-2.5,9.4-5.2,16.2-4.7c6.5,0.5,10.1,1.9,22.8,8.7c10.4,5.6,10.5,5.6,7.1,6.6C6.9,619.8,4.3,620,3.4,619.2z M12,609.2
		c2.3-1.5,3.5-1.5,3.5,0c0,0.6-1.2,1.2-2.7,1.2C10.7,610.3,10.5,610.1,12,609.2z M952.6,607.1c-0.7-0.5-1.9-2.1-2.7-3.6
		c-1.2-2.3-1.1-3.3,0.7-6.4c2.8-4.7,4.6-5.3,5.5-1.7C957,599.1,954.3,608.2,952.6,607.1L952.6,607.1z M19.7,605.5
		c0.8-1.3,5.2-1.4,5.2-0.2c0,0.5-1.3,1-2.9,1.1C20.4,606.5,19.4,606.1,19.7,605.5L19.7,605.5z M-3.6,594.1c-1.9-2.2-1.6-5,0.5-5
		c0.7,0,0.9,1,0.6,2.3s0,2.5,0.7,2.8c0.7,0.3,1,0.8,0.7,1.2C-1.5,595.9-2.6,595.3-3.6,594.1z M3.2,584.9c-0.4-1.1-0.5-2.3-0.2-2.6
		c0.3-0.3,0.9,0.3,1.4,1.4s0.5,2.3,0.2,2.6C4.2,586.6,3.6,586,3.2,584.9z M-4.2,583.8c0-1,1-1.8,2.2-1.8c2,0,2.1,0.2,0.5,1.8
		c-1,1-2,1.8-2.2,1.8C-4,585.6-4.2,584.8-4.2,583.8z M986.3,557.9c0-0.9-1.3-3.2-2.9-5.1c-3.7-4.4-2.4-7.4,2-4.5
		c3.2,2.1,4.9,6.4,3.7,9.4C988.3,560.1,986.3,560.2,986.3,557.9z M992.9,549.4c-0.8-2,1-3.9,3.8-3.9c1.9,0,1.9,2.6,0.1,4.5
		C994.8,551.8,993.8,551.7,992.9,549.4L992.9,549.4z M1003.7,545c-2.3-3.5-5.5-4-12.9-1.9c-3,0.8-5.1,0.8-6.5,0
		c-1.1-0.7-1.4-1.2-0.7-1.2s3-1.4,4.9-3c2.5-2.1,4.4-2.8,6.4-2.3c2.1,0.5,4.4-0.5,9.2-4.1c9.3-7,10.2-9.2,6.4-16.7
		c-3.6-7.2-2.6-9.5,2.8-6.3c3.9,2.3,7.6,9,6.6,11.8c-0.4,1,0.2,4.2,1.3,7c1.5,4.1,1.7,5.8,0.7,7.7c-1.5,2.8-5.7,4.7-10.5,4.7
		c-2.7,0-3.5,0.7-4.4,3.8l-1.1,3.8L1003.7,545L1003.7,545z M525.3,541c-1.4-1.4-0.7-2.7,1.6-2.7c1.3,0,2.6-0.5,3-1.2
		c1.1-1.8,3-1.4,2.3,0.4C531.4,539.5,526.3,542,525.3,541L525.3,541z M485,539l-3.5-1.6l4.7-0.1c5.9-0.1,10.2,1,9.4,2.4
		C494.6,541.2,489,540.8,485,539L485,539z M437.3,527.2c-4.7-2.4-4.9-2.7-2.5-3.4c3-0.8,9.5,0.2,9.4,1.4c0,0.4-0.4,1.6-0.9,2.7
		C442.5,529.7,442,529.6,437.3,527.2z M413.6,514.4c-1-2.9-0.9-4.1,0.4-5.4c2.4-2.4,4.3-0.7,4.3,3.9
		C418.2,518.3,415.3,519.3,413.6,514.4L413.6,514.4z M385.9,515.4c0.8-2.2,4.4-2.6,3.7-0.4c-0.3,0.8-1.4,1.6-2.5,1.9
		C385.8,517.1,385.4,516.7,385.9,515.4L385.9,515.4z M1003,501.9c-2.2-3-2.2-3.6-0.6-5.9c1.6-2.2,1.6-2.9-0.1-6
		c-2.7-5.1-2.3-5.4,2.3-1.9c2.3,1.7,6.8,3.9,10,4.9c6.6,2,8.2,3.5,4.8,4.6c-1.3,0.4-2.4,1.5-2.4,2.5c0,1.3-0.8,1.5-3.2,0.9
		c-6.2-1.6-8-1.2-7.6,1.7C1006.7,506.1,1005.9,506,1003,501.9L1003,501.9z M415.5,503.3c-1.4-1.4-0.9-3.7,1-4.4
		c1.3-0.5,1.8,0.1,1.8,2.2C418.2,504,417.1,504.9,415.5,503.3z M995.5,478.4c-1-1.1-3.4-5.3-5.4-9.2s-7.1-11.1-11.5-15.9
		c-4.9-5.4-7.3-9-6.4-9.3c0.8-0.3,2.6,1,3.9,2.7c3.2,4.3,7.3,8.1,13.6,12.7c5.2,3.9,7.8,7.4,4.4,6.1c-3.9-1.5-2.9,2.1,2.1,7.7
		c2.9,3.3,5.3,6.3,5.3,6.6C1001.7,481.3,997.1,480.2,995.5,478.4L995.5,478.4z M131.2,476.3c0-1,0.5-1.8,1.1-1.8s0.8,0.8,0.5,1.8
		c-0.4,1-0.9,1.8-1.1,1.8C131.5,478.1,131.2,477.3,131.2,476.3z M125.1,472.5l-4.4-0.5l8.3-8.2c4.6-4.5,8.9-8.2,9.6-8.2
		c0.8,0,0.5,0.9-0.5,2.1c-2.5,2.7-0.8,5.8,3.7,6.8c2,0.4,3.9,1.9,4.7,3.6c1.2,2.7,1,2.9-3.1,4.1C139,473.3,133.9,473.4,125.1,472.5
		L125.1,472.5z M-162.7,464c-4.1-3.8-4.5-5.4-1.8-6.5c2.4-0.9,6.9,2.1,8.6,5.8c1.8,3.9,1.8,4.1-0.9,4.1
		C-158,467.5-160.7,465.9-162.7,464z M357.4,458c1.3-0.6,3.9-1.7,5.7-2.4c4-1.5,3.4-3-1.7-4c-3.5-0.7-3.6-0.9-1.6-2.3
		c1.2-0.9,1.8-2.1,1.4-2.8c-0.4-0.7,0.8-1.8,2.8-2.5c1.9-0.7,3.5-1.8,3.5-2.4c0-2.7-2.5-7.3-3.8-7.1c-3.2,0.4-4.6-0.1-4.1-1.6
		c0.3-0.8,0.1-2.4-0.5-3.5c-1.5-3,2-9.1,5.2-9.1c0.5,0,0.8,0.6,0.6,1.4c-0.2,0.8,1,1.6,2.5,1.9l2.8,0.4l-2.6,2.8l-2.6,2.8l3,1.1
		c3.2,1.2,6.3,5.2,9.4,12.1c1.5,3.3,2.5,4.2,4.3,3.7c3.6-0.9,4,1.5,0.7,3.7c-2.3,1.5-2.7,2.4-1.7,3.4c1,1-1,1.7-7.8,2.7
		c-5.1,0.7-11.1,1.7-13.3,2.1C356,459,355.6,458.9,357.4,458L357.4,458z M337.5,451.5c-0.4-1.1,0.1-3.4,1-5.3
		c1.1-2.1,1.3-3.7,0.6-4.1c-2-1.3-1.3-2.9,1.7-3.6c1.6-0.4,3.5-1.5,4.3-2.4c1.6-1.9,8.8-2.2,9.9-0.5c0.4,0.6-0.1,2.4-1.1,3.8
		c-1,1.4-1.8,4-1.8,5.8c0,2.6-0.8,3.4-5,4.9c-2.8,1-5.9,2.1-6.9,2.6C338.9,453.1,338,452.8,337.5,451.5z M359.2,439.8
		c0-0.3,0.5-0.8,1.2-1.3c0.6-0.4,1.2-0.2,1.2,0.5c0,0.7-0.5,1.3-1.2,1.3C359.7,440.3,359.2,440.1,359.2,439.8z M-165,434.1
		c-1.2-1.4-1.1-2,0.4-3.2c2.4-2,3.6-0.6,2.2,2.5C-163.4,435.5-163.7,435.6-165,434.1L-165,434.1z M-166.8,425.2
		c-0.4-0.6,0.1-1.8,1-2.6c1.9-1.6,2.3-0.3,0.7,2.2C-165.7,425.8-166.4,425.9-166.8,425.2z M-243.2,424.5c0-0.8,3.6-2.3,8.7-3.5
		c1.9-0.5,3.1-0.4,2.7,0.3c-0.4,0.6-2.1,1.4-3.9,1.7c-1.8,0.4-4.2,1-5.3,1.5C-242.2,424.8-243.2,424.9-243.2,424.5L-243.2,424.5z
		 M458.7,411.2c-2.2-0.9-1.8-2.2,0.7-2.4c1.2-0.1,2.2,0.6,2.2,1.5C461.6,412,461.1,412.2,458.7,411.2L458.7,411.2z M199.2,405.1
		c-7.5-4.1-11-10.3-8.9-15.6c1-2.5,1.1-4,0.1-5.8c-2-3.7,0.6-7.9,7.1-12c3.1-1.9,6.2-4.5,6.9-5.8c1.9-3.5,0.2-9.6-3.1-11.1
		c-1.7-0.8-2.6-2-2.2-2.9c0.8-2.2-3.1-9.6-7-13.3c-2.9-2.7-4.1-3-14-3c-13.4-0.1-15.9-0.8-15.7-4.7c0.1-1.6,0.4-2.9,0.8-2.9
		c0.3,0,5.1-0.6,10.6-1.2c7-0.9,13.3-2.6,21.2-6c12.1-5.2,13.1-5.3,42-4.6c9.1,0.2,17.5-0.5,28.3-2.3c10.1-1.7,17.5-2.3,21.5-1.9
		c3.4,0.4,8.3,0.1,11.1-0.6c6.4-1.7,23.2,0.4,29.8,3.7c3.9,2,6,2.2,12.5,1.6c7.1-0.7,7.6-0.6,5.5,1c-1.3,1-5.3,2.1-8.9,2.6
		c-7.8,1-14.9,6.5-13,10.1c0.8,1.5,0.2,2.8-2.4,5.3c-1.9,1.8-3.8,4.2-4.1,5.3c-0.8,2.6-11.3,7.4-16.4,7.6c-5.8,0.2-6.4,1.4-1.9,3.9
		c2.1,1.2,5.2,3.1,6.8,4.4l3,2.3l-2.7,1c-2.1,0.8-3.8,0.3-7.2-2.1c-4.7-3.2-9.7-3.3-7,0c1,1.3,0.8,1.8-1.2,2.3
		c-4.4,1.1-1.3,3.4,3.6,2.6c3.1-0.5,4.8-0.2,5.8,0.9c1.1,1.4-0.3,2-9,3.8c-5.7,1.2-13.3,2.2-16.8,2.3c-6.6,0.1-11.4,2-18.5,7.4
		c-2.3,1.7-7.2,3.5-12.9,4.6c-11.9,2.3-16,4.9-23.1,15.2c-5.8,8.2-9.3,11.3-12.8,11.3C205.9,408.4,202.4,406.9,199.2,405.1
		L199.2,405.1z M115.4,397.2c-2.5-1.6-5.6-4.5-6.9-6.5c-2.5-3.9-4.7-4.4-11.4-2.5c-2.3,0.6-4.8,0.7-5.8,0.1c-3.5-2,2.8-3.9,9.9-3
		c5.4,0.7,6.5,0.5,7.2-1.1c1.3-3.3,7-5.6,10.2-4.2c2,0.9,3.7,0.9,6.3-0.1c3.4-1.3,3.4-1.4,1.2-3c-1.3-0.9-2.7-1.7-3.2-1.7
		c-0.5,0-2.3-2.4-4-5.3c-1.7-2.9-4.9-6.4-7.1-7.7c-3.7-2.3-4.2-2.3-7.6-0.6c-2.9,1.5-4.6,1.6-9.2,0.6c-3.1-0.7-7.4-0.9-9.6-0.5
		c-3.8,0.7-10.8-1.2-10.8-2.9c0-3.2,10-10.3,15.9-11.4l4.7-0.8l-3.4,3.6c-4.7,5-2.9,7.2,2.2,2.8c2.1-1.9,5.9-3.8,8.2-4.2
		c3.6-0.7,5.2-0.2,9.8,2.8c6.1,4,6.6,4.1,10,2.3c2.1-1.1,2.8-0.8,5.1,2c1.6,1.9,5,4.1,8.4,5.1c5.4,1.7,5.8,2.1,5.8,5.8
		c0,2.8,0.8,4.6,2.7,5.9c7.9,5.7,7.8,5.4,6,8.2c-2.4,3.8-4.2,4-9.4,1.4c-3.6-1.8-5.2-2.1-7-1.1c-2.2,1.2-2.3,1.4-0.5,4.9
		c1.5,2.8,1.6,4.3,0.6,6.5c-1.2,2.7-1.4,2.7-4.8,1c-6.6-3.4-11-1.2-4.9,2.5c1.9,1.1,3.2,2.5,2.9,3C125.8,401,120,400.1,115.4,397.2
		L115.4,397.2z M358,398.8c0-0.5,0.8-1,1.8-1c1,0,1.8,0.4,1.8,1s-0.8,1-1.8,1S358,399.3,358,398.8z M70.9,392.4
		c-2.3-1.2-4.1-1.3-7.4-0.4c-5.5,1.5-7.5,0.4-4.7-2.7c3.6-4,6-4.8,10.4-3.3c4.9,1.6,7.1,4,5.7,6.3C74.1,393.8,73.5,393.8,70.9,392.4
		z M305.5,391.9c-1.9-1.3-4.4-2-5.5-1.7c-1.5,0.5-1.8,0.1-1.4-1.7c0.7-2.7,11.1-6.6,14.6-5.5c1.2,0.4,4.3,0.1,6.9-0.7
		c4.1-1.2,5.2-1.1,7.9,0.7l3.2,2.1l-2.8,2.2c-2.4,1.9-6.9,3.5-17.6,6.4C309.8,394,307.4,393.2,305.5,391.9z M-15.2,369.8
		c-1.6-0.3-5.6-1.6-8.8-3.1l-5.8-2.6l8.2-0.6c4.5-0.3,8.2-1.1,8.2-1.8s-3.2-1.5-7.1-1.8c-5.1-0.5-6.1-0.8-3.5-1.2
		c4.3-0.7,4.6-2.5,0.6-3.5c-2.9-0.7-2.9-0.8,1.2-2.5c7.1-3,14.6-3.6,21.3-1.6c5.5,1.6,6.3,1.6,8.9-0.1c1.8-1.2,2.9-1.4,3-0.6
		c0.1,0.7,0.2,1.9,0.3,2.7c0.3,2.6,2.6,2.2,5.4-0.8c2.6-2.8,7.1-4.1,7.1-2.1c0,0.5-1.1,2.6-2.3,4.7l-2.3,3.8l3.8,2l3.8,2l-6.3,2.9
		c-5.6,2.6-6.8,2.7-11.9,1.5c-4.9-1.2-6.3-1-11.3,1.1C-8.2,370.6-9.4,370.7-15.2,369.8L-15.2,369.8z M32.2,369
		c-1.1-1.3-0.6-1.9,2.1-3.1c1.9-0.8,4.7-1.1,6.1-0.6c2.6,0.8,2.5,0.9-1.4,3C34.1,371,33.8,371,32.2,369L32.2,369z M358,363.5
		c2.3-1.5,3.5-1.5,3.5,0c0,0.6-1.2,1.2-2.7,1.2C356.8,364.7,356.6,364.5,358,363.5z M574.7,360.3c-6-2.4-5.9-2.3-4.2-4.4
		c0.8-1,1-1.8,0.5-1.8c-0.6,0,0-0.8,1.3-1.8c1.3-1,2.4-2.2,2.4-2.6c0-1.7,4.8-6.4,8.2-7.9c1.9-0.9,7-1.9,11.2-2.2
		c4.2-0.3,9.9-0.9,12.6-1.4c2.9-0.4,5.2-0.3,5.6,0.4c0.8,1.4-0.8,1.9-9.9,3.6c-9.1,1.6-14.6,4.2-18.2,8.5c-3.8,4.5-3.9,7.4-0.4,9.8
		l2.7,1.9l-3.5-0.1C581.1,362.2,577.3,361.3,574.7,360.3L574.7,360.3z M-43.8,356.8c-1.9-1.9-1.5-2.3,7.7-7.3
		c10.7-5.9,16.1-6.6,25.7-3.7l5.3,1.6l-7.1,1.4c-5.8,1.1-18.1,5.3-27.8,9.3C-41,358.5-42.7,358-43.8,356.8z M41.5,355.3
		c0-0.6-1.5-2-3.2-3l-3.2-1.9l4.3,0.7c3.1,0.5,4.6,0.2,5.3-1c0.8-1.4,8.3-4.3,11.3-4.3c0.5,0,0.1,1.6-0.9,3.5
		C52.7,353.9,41.5,358.9,41.5,355.3L41.5,355.3z M59.9,351.9c-1.7-2.7,9.9-7,14.8-5.4c3.6,1.1,1.2,3.1-5.1,4.1c-2.8,0.5-6,1.2-7,1.7
		C61.5,352.7,60.3,352.5,59.9,351.9L59.9,351.9z M97.6,343.2c-7.8-0.6-14.3-1.3-14.5-1.4c-1.1-1,1.6-4.2,4.4-5.3
		c2.8-1.2,4.1-1,7.9,0.9c3.7,1.9,6.1,2.2,13,1.7c4.7-0.3,10-0.2,11.8,0.2l3.3,0.8l-4.1,2.2c-2.3,1.2-4.9,2.2-5.9,2.1
		C112.6,344.3,105.4,343.8,97.6,343.2L97.6,343.2z M437.5,338.3c-5.8-3-6.4-4.3-1.8-4.3c1.8,0,4-0.6,5-1.3c1.5-1.1,1.5-1.2-0.2-0.7
		c-1.1,0.3-2.5,0-3.3-0.8c-1-1-1.6-1-2.3,0.1c-0.6,1-1.9,1.1-4.4,0.4c-6.2-1.9-7.6-2.7-7.6-4.5c0-1.6,1.6-1.7,11.2-1
		c7.4,0.5,11.2,0.4,11.2-0.4c0-2.3,3.3-1.2,4.1,1.5l0.9,2.7l0.5-2.7c0.3-1.5,1.3-2.7,2.2-2.7c0.9,0,1.7-0.6,1.7-1.4
		c0-1.1,0.3-1.1,1.4,0c0.8,0.8,4.8,1.4,9.4,1.4c8.4,0,10.4,1.5,4.8,3.7c-2.9,1.1-8,0.8-13.6-0.8c-1.1-0.3-2.1-0.2-2.1,0.4
		c0,1.1,6.6,5.1,8.4,5.1c0.6,0,1.9,0.7,2.8,1.7c1.4,1.4,1.4,1.8-0.1,2.3c-1,0.4-1.7,0.1-1.7-0.6c0-0.8-1.5-1-4.2-0.5
		c-3,0.6-4,0.4-3.4-0.5c0.4-0.7,0.2-2.1-0.6-3c-1.5-1.8-5.9-2.4-5.9-0.8c0,0.5-1.7,2.9-3.8,5.2l-3.8,4.2L437.5,338.3L437.5,338.3z
		 M124.2,335.7c-2-1.2-4.9-1.6-9.4-1.1c-4.2,0.4-7.4,0.1-9.2-0.9c-2.4-1.4-1.8-1.5,5.6-1.5c9.2,0.1,13.3-1.9,8.3-4
		c-2.4-1-2-1.1,2-0.5c5.3,0.7,7.4-0.7,4.5-3.1c-3.1-2.6,0.3-3.4,11.3-2.6c6.8,0.4,11.1,0.2,12.8-0.7c3.3-1.8,2-4.1-1.8-3.1
		c-2.6,0.7-21-0.4-20.2-1.2c0.6-0.6,26.5-3,43.6-4c8.8-0.6,18.7-1.3,21.8-1.7l5.8-0.7l-9.5,4.6c-8.9,4.3-23.5,8.5-29.4,8.5
		c-1.5,0-5.6,1.6-9.3,3.5c-3.7,1.9-7.4,3.5-8.3,3.5c-0.9,0-4.8,1.6-8.6,3.5s-7,3.5-7,3.5C127.1,337.5,125.8,336.7,124.2,335.7
		L124.2,335.7z M101.1,324.9c-5.7-1.3-5.9-1.7-1.7-3.9c6.1-3.2,11.9-4,14.6-2c2.1,1.5,2,1.8-2.1,4.2
		C107.6,325.7,105.8,326,101.1,324.9z"/>
</g>
</svg>
